<?xml version="1.0" standalone="no"?>
<!DOCTYPE svg PUBLIC "-//W3C//DTD SVG 20010904//EN"
 "http://www.w3.org/TR/2001/REC-SVG-20010904/DTD/svg10.dtd">
<svg version="1.0" xmlns="http://www.w3.org/2000/svg"
 width="1080.000000pt" height="1080.000000pt" viewBox="0 0 1080.000000 1080.000000"
 preserveAspectRatio="xMidYMid meet">
<metadata>
Created by potrace 1.14, written by Peter Selinger 2001-2017
</metadata>
<g transform="translate(0.000000,1080.000000) scale(0.100000,-0.100000)"
fill="#000000" stroke="none">
<path d="M2899 7901 l-2501 -2501 2501 -2501 2501 -2501 2501 2501 2502 2501
-2502 2501 -2501 2501 -2501 -2501z m4696 -311 l2190 -2190 -2193 -2193 -2192
-2192 -2192 2192 -2193 2193 2190 2190 c1204 1204 2192 2190 2195 2190 3 0
991 -986 2195 -2190z"/>
<path d="M4973 9016 l-263 -264 0 -2994 0 -2993 -564 565 -563 565 -1 633 c0
347 -1 639 -1 647 -1 13 -126 14 -995 14 -546 0 -996 -2 -999 -6 -13 -12 19
-47 248 -277 l236 -236 469 0 468 0 0 -471 -1 -471 1044 -1049 c574 -578 1069
-1076 1099 -1107 31 -31 63 -63 71 -69 14 -12 16 351 16 3882 0 2142 -1 3895
-1 3895 -1 0 -119 -119 -263 -264z"/>
<path d="M5529 9270 c-2 -8 -4 -7780 -2 -7780 1 0 119 118 262 262 l261 263 0
2994 0 2995 565 -570 565 -569 0 -642 c0 -605 1 -643 18 -644 23 -1 1953 -1
1969 0 29 2 -16 55 -240 279 l-237 237 -457 -1 c-252 0 -463 2 -470 4 -8 2
-11 126 -11 474 l0 471 -496 496 c-272 273 -772 775 -1110 1116 -339 341 -616
618 -617 615z"/>
<path d="M4269 8306 c-46 -45 -349 -349 -673 -674 l-589 -592 -1 -477 -1 -478
-475 -3 -476 -2 -239 -243 -240 -242 999 -3 c550 -1 1001 0 1004 3 3 2 5 290
5 639 l0 634 166 166 166 166 -1 -1563 -1 -1562 224 -225 c123 -125 223 -221
224 -215 4 56 2 4755 -2 4755 -3 0 -44 -38 -90 -84z"/>
<path d="M6399 7130 c-4 -77 -3 -4744 2 -4751 3 -5 308 296 678 669 l673 679
1 479 2 479 477 0 476 0 236 239 c130 132 233 242 230 245 -3 3 -453 6 -1000
6 l-994 0 0 -638 0 -637 -163 -165 c-90 -91 -165 -165 -168 -165 -2 0 -4 703
-4 1563 l0 1562 -222 225 c-123 124 -223 218 -224 210z"/>
</g>
</svg>
